<?xml version="1.0" encoding="UTF-8"?>
<svg width="38px" height="12px" viewBox="0 0 38 12" version="1.1" xmlns="http://www.w3.org/2000/svg" xmlns:xlink="http://www.w3.org/1999/xlink">
    <!-- Generator: sketchtool 50.2 (55047) - http://www.bohemiancoding.com/sketch -->
    <title>A941B2F1-8D7F-40F5-BA2B-BD91395A8788</title>
    <desc>Created with sketchtool.</desc>
    <defs></defs>
    <g id="Assets" stroke="none" stroke-width="1" fill="none" fill-rule="evenodd">
        <g id="logos" transform="translate(-141.000000, -214.000000)">
            <g id="payment-systems-logos" transform="translate(140.000000, 100.000000)">
                <g id="logos" transform="translate(0.000000, 110.000000)">
                    <g id="Logos-/-PS-/-ps-visa">
                        <rect id="container" x="0" y="0" width="38" height="20"></rect>
                        <g id="visa-casino" stroke-width="1" fill-rule="evenodd" transform="translate(1.000000, 4.000000)" fill="#1434cb">
                            <path d="M0,0.450111455 C0.0582167183,0.376365325 0.00776470588,0.242433437 0.0912260062,0.207510836 C0.178569659,0.170637771 0.291139319,0.193931889 0.39206192,0.193931889 C1.96608669,0.193931889 3.54011146,0.193931889 5.11413622,0.193931889 C5.88271207,0.193931889 6.43391331,0.653907121 6.57559133,1.40890402 C6.98316409,3.58265015 7.39075542,5.75639628 7.80026006,7.93016099 C7.80802477,7.96703406 7.81967183,8.00390712 7.83520124,8.06602477 C7.98852632,7.68174613 8.1321548,7.31879257 8.27576471,6.9539257 C9.14914551,4.74718885 10.0205944,2.54043344 10.8900929,0.33174613 C10.9327988,0.224990712 10.9793684,0.188117647 11.0977709,0.188117647 C12.054613,0.193931889 13.0095046,0.192 13.9663467,0.192 C14.0090526,0.192 14.0517399,0.192 14.1119071,0.192 C13.9896409,0.48895356 13.8712384,0.772309598 13.7528545,1.05568421 C12.2700372,4.5938452 10.7853065,8.13200619 9.30637152,11.6701858 C9.26173375,11.7769412 9.21321362,11.8118638 9.09676161,11.8099319 C8.13603715,11.8041176 7.17533127,11.8041176 6.21460681,11.8099319 C6.09427245,11.8099319 6.05351703,11.7749907 6.02440867,11.6624211 C5.23642105,8.59976471 4.44066873,5.53710836 3.65658204,2.47250155 C3.53624768,1.99892879 3.282,1.66898452 2.8375356,1.45937461 C1.96413622,1.04983282 1.04611765,0.781987616 0.112569659,0.564613003 C0.0756965944,0.556866873 0.036873065,0.545219814 0,0.535504644 C0,0.508328173 0,0.479219814 0,0.450111455 Z M25.4367492,0.0658142415 C25.9674613,0.152340557 26.4828669,0.285120743 26.9913622,0.455925697 C27.0748235,0.483102167 27.1000495,0.516092879 27.0787059,0.611201238 C26.9156842,1.35455108 26.7565263,2.09983282 26.6012508,2.84511455 C26.5799071,2.94410526 26.5585449,2.96544892 26.4556904,2.92081115 C25.6405263,2.5636904 24.7865573,2.38707121 23.8957152,2.42396285 C23.511418,2.43949226 23.1368359,2.50742415 22.8030093,2.7131517 C22.5681734,2.85678019 22.3934861,3.05279257 22.3469164,3.33421672 C22.3080929,3.57293498 22.4051331,3.76896594 22.564291,3.93782043 C22.8088421,4.19790093 23.1193746,4.36868731 23.4279752,4.5375418 C23.9908235,4.84419195 24.5711331,5.11980186 25.0971084,5.49050155 C25.6754861,5.8980743 26.1839814,6.37941176 26.389709,7.07617337 C26.7584768,8.32608669 26.4867492,9.45564706 25.6327802,10.4299505 C25.0214118,11.1286625 24.2159628,11.5129412 23.3328669,11.7477771 C22.3604954,12.0059071 21.3706625,12.0388978 20.3750155,11.9399257 C19.6297337,11.8661796 18.8960805,11.7322477 18.1915542,11.4683034 C17.9702972,11.3848421 17.9702972,11.3848421 18.0207678,11.1480557 C18.1760433,10.4124706 18.3332508,9.67688545 18.4904582,8.94131889 C18.4982229,8.90444582 18.5118019,8.86757276 18.5253994,8.82486687 C19.0513746,9.07911455 19.5831641,9.30813622 20.1537771,9.42070588 C20.9107059,9.57014861 21.671517,9.64389474 22.4323282,9.43428483 C22.6865759,9.36442105 22.9194799,9.25185139 23.1116285,9.06551703 C23.4823282,8.70451393 23.4959257,8.18825387 23.1407368,7.81172136 C22.9466563,7.60599381 22.70987,7.45655108 22.4672693,7.31680495 C22.0267059,7.06060681 21.5511827,6.86459443 21.1145015,6.59869969 C20.7088607,6.35221672 20.324582,6.07855728 19.9985201,5.73113313 C19.1697771,4.85386997 19.0242167,3.83492879 19.4007307,2.72476161 C19.7306749,1.75239009 20.4255046,1.09833437 21.3163467,0.636408669 C22.0053437,0.277356037 22.7473189,0.102204334 23.5153189,0.0172755418 C23.5483282,0.0136532508 24.77987,-0.0412755418 25.4367492,0.0658142415 Z M12.908582,11.8079443 C12.9978576,11.3926068 13.0832508,10.9869659 13.1686625,10.5832755 C13.609226,8.52403096 14.049808,6.46673684 14.4903715,4.40749226 C14.7834427,3.04112693 15.0745635,1.67478019 15.3657028,0.308414861 C15.3851146,0.219139319 15.4200372,0.188080495 15.517096,0.188080495 C16.4389969,0.191962848 17.3608978,0.191962848 18.2827988,0.188080495 C18.3759567,0.188080495 18.4031331,0.199727554 18.379839,0.304532508 C18.0498947,1.82422291 17.7277152,3.34777709 17.4016533,4.86746749 C16.9533251,6.96358514 16.5049783,9.05970279 16.0546997,11.1558204 C16.0139443,11.3440867 15.9731889,11.5323529 15.9363158,11.7206006 C15.9246687,11.7749536 15.9072074,11.8040619 15.8431579,11.8040619 C14.8707678,11.8079443 13.8964644,11.8079443 12.908582,11.8079443 Z M37.1187121,11.5886378 C36.8974551,10.5425201 36.6761981,9.49640248 36.4588235,8.44835294 C35.8940433,5.74086687 35.3292446,3.0333808 34.7683467,0.325913313 C34.7470031,0.224990712 34.7081796,0.190049536 34.5994923,0.190049536 C33.8115046,0.195863777 33.023517,0.193931889 32.2374799,0.193931889 C31.5698266,0.193931889 31.1176161,0.49669969 30.8575356,1.11778328 C29.4814737,4.40169659 28.1034799,7.68756037 26.7293498,10.9675913 C26.6148483,11.2412508 26.5022786,11.5168421 26.3877585,11.792452 C26.414935,11.8002167 26.4226997,11.8040991 26.4323963,11.8040991 C27.4416409,11.8060495 28.4508854,11.8040991 29.4601115,11.8079814 C29.5474551,11.8079814 29.5629845,11.7575294 29.5843282,11.6992941 C29.7648297,11.196613 29.9492136,10.6958824 30.1258328,10.1912508 C30.1588235,10.1000248 30.1995789,10.0689845 30.2985697,10.0689845 C31.4902477,10.0747988 32.6838762,10.0747988 33.8755542,10.0689845 C33.997839,10.0689845 34.0288793,10.1155728 34.048291,10.2184272 C34.1433994,10.7055789 34.2482043,11.1907988 34.3432941,11.6779505 C34.3627059,11.7827554 34.4073437,11.8099319 34.5121486,11.8099319 C35.3894118,11.8060495 36.2686254,11.808 37.1478204,11.808 C37.1478204,11.7594799 37.1478204,11.7128916 37.1517028,11.6624396 C37.1148297,11.648805 37.1245263,11.6138638 37.1187121,11.5886378 Z M33.3689907,7.69140557 C32.5984644,7.68559133 31.8260248,7.68945511 31.0341548,7.68945511 C31.5581796,6.2454613 32.0744396,4.82282972 32.5887678,3.40017957 C32.5984644,3.40017957 32.6062291,3.40213003 32.6159443,3.40213003 C32.6955232,3.78447678 32.7770341,4.16489164 32.856613,4.54723839 C33.064291,5.5467678 33.2719505,6.54631579 33.4835108,7.54391331 C33.5067864,7.65648297 33.4951579,7.69140557 33.3689907,7.69140557 Z" id="visa-txt" fill-rule="nonzero"></path>
                        </g>
                    </g>
                </g>
            </g>
        </g>
    </g>
</svg>