<?xml version="1.0" encoding="UTF-8"?>
<svg width="29px" height="18px" viewBox="0 0 29 18" version="1.1" xmlns="http://www.w3.org/2000/svg" xmlns:xlink="http://www.w3.org/1999/xlink">
    <!-- Generator: sketchtool 50.2 (55047) - http://www.bohemiancoding.com/sketch -->
    <title>B5012FC4-8290-4A71-8078-C46DDDAD425F</title>
    <desc>Created with sketchtool.</desc>
    <defs></defs>
    <g id="Assets" stroke="none" stroke-width="1" fill="none" fill-rule="evenodd">
        <g id="logos" transform="translate(-207.000000, -211.000000)">
            <g id="payment-systems-logos" transform="translate(140.000000, 100.000000)">
                <g id="logos" transform="translate(0.000000, 110.000000)">
                    <g id="Logos-/-PS-/-ps-mastercard" transform="translate(58.000000, 0.000000)">
                        <rect id="container" x="0" y="0" width="38" height="20"></rect>
                        <g id="mastercard" stroke-width="1" fill-rule="evenodd" transform="translate(9.000000, 1.000000)">
                            <rect id="Rectangle-path" fill="#FF5F00" fill-rule="nonzero" x="10.5620429" y="1.91359345" width="7.82833568" height="14.066152"></rect>
                            <path d="M11.0590776,8.94666719 C11.0590776,6.08870332 12.401078,3.55381369 14.4637824,1.91359097 C12.9478189,0.720701717 11.0342257,-2.20457519e-06 8.94666957,-2.20457519e-06 C4.00114955,-2.20457519e-06 1.95375555e-07,4.00114715 1.95375555e-07,8.94666719 C1.95375555e-07,13.8921872 4.00114955,17.8933365 8.94666957,17.8933365 C11.0342257,17.8933365 12.9478189,17.1726326 14.4637824,15.9797434 C12.401078,14.3643725 11.0590776,11.8046311 11.0590776,8.94666719 Z" id="Shape" fill="#EB001B" fill-rule="nonzero"></path>
                            <path d="M28.9524164,8.94666719 C28.9524164,13.8921872 24.9512671,17.8933365 20.005747,17.8933365 C17.9181908,17.8933365 16.0045975,17.1726326 14.4886343,15.9797434 C16.5761904,14.3395207 17.8933389,11.8046311 17.8933389,8.94666719 C17.8933389,6.08870332 16.5513385,3.55381369 14.4886343,1.91359097 C16.0045975,0.720701717 17.9181908,-2.20457519e-06 20.005747,-2.20457519e-06 C24.9512671,-2.20457519e-06 28.9524164,4.02599902 28.9524164,8.94666719 Z" id="Shape" fill="#F79E1B" fill-rule="nonzero"></path>
                        </g>
                    </g>
                </g>
            </g>
        </g>
    </g>
</svg>