<svg width="48" height="13" viewBox="0 0 48 13" fill="none" xmlns="http://www.w3.org/2000/svg">
<path d="M34.0291 6.17578V12.997H38.1873V9.15589H42.3723C44.5581 9.15589 46.424 7.9164 47.1437 6.17578H34.0291Z" fill="#006644"/>
<path d="M33.8372 0C33.8558 0.347857 33.9051 0.687717 33.9824 1.01558C34.0011 1.08889 34.0171 1.16219 34.0384 1.23416C34.0477 1.26348 34.0544 1.2928 34.0637 1.32346C34.8061 3.67849 37.0065 5.38712 39.6081 5.38712H47.2876C47.3343 5.12456 47.3636 4.85534 47.3636 4.57812C47.3636 3.24134 46.7865 2.04316 45.8749 1.20617C45.0592 0.459811 43.977 0 42.7855 0H33.8372Z" fill="url(#paint0_linear_1860_88128)"/>
<path d="M26.6588 1.37277L23.748 7.68085H23.4522V0H19.3165V12.9987H22.8258C23.748 12.9987 24.585 12.4629 24.9715 11.6259L27.8824 5.31915H28.1782V13H32.3139V0H28.8033C27.8823 0 27.044 0.53578 26.6588 1.37277Z" fill="#006644"/>
<path d="M7.40004 1.70863L9.12333 7.68085H9.41788L11.1412 1.70863C11.4331 0.697047 12.3593 0 13.4122 0H17.5425V12.9987H13.4069V5.31782H13.111L10.748 12.9987H7.79455L5.43152 5.31782H5.13564V12.9987H1V0H5.13031C6.18188 0 7.10816 0.697047 7.40004 1.70863Z" fill="#006644"/>
<defs>
<linearGradient id="paint0_linear_1860_88128" x1="33.8367" y1="2.69366" x2="47.3627" y2="2.69366" gradientUnits="userSpaceOnUse">
<stop stop-color="#50A9DF"/>
<stop offset="1" stop-color="#2D3E91"/>
</linearGradient>
</defs>
</svg>
