<svg xmlns="http://www.w3.org/2000/svg" width="16.871" height="21.079" viewBox="0 0 16.871 21.079">
  <path id="Path_3" data-name="Path 3" d="M65.667,18.221,64.46,4.63a.581.581,0,0,0-.578-.53H61.4a4.165,4.165,0,0,0-8.328,0H50.589a.578.578,0,0,0-.578.53L48.8,18.221c0,.017,0,.034,0,.052a3,3,0,0,0,3.164,2.806H62.508a3,3,0,0,0,3.164-2.806A.211.211,0,0,0,65.667,18.221ZM57.236,1.164a3,3,0,0,1,3,2.935h-6A3,3,0,0,1,57.236,1.164Zm5.272,18.751H51.964a1.857,1.857,0,0,1-2-1.616L51.119,5.267h1.948V7.035a.582.582,0,0,0,1.164,0V5.267h6V7.035a.582.582,0,1,0,1.164,0V5.267h1.948L64.508,18.3A1.86,1.86,0,0,1,62.508,19.915Z" transform="translate(-48.8)" fill="#fff"/>
</svg>
